<?xml version="1.0" encoding="utf-8"?>
<!-- Generator: Adobe Illustrator 16.0.3, SVG Export Plug-In . SVG Version: 6.00 Build 0)  -->
<!DOCTYPE svg PUBLIC "-//W3C//DTD SVG 1.1//EN" "http://www.w3.org/Graphics/SVG/1.1/DTD/svg11.dtd">
<svg version="1.1" id="Layer_1" xmlns="http://www.w3.org/2000/svg" xmlns:xlink="http://www.w3.org/1999/xlink" x="0px" y="0px"
	 width="220.519px" height="27.731px" viewBox="34.481 8.182 220.519 27.731" enable-background="new 34.481 8.182 220.519 27.731"
	 xml:space="preserve">
<g>
	<g>
		<path d="M53.527,35.914h-4.025V33.7c-1.271,1.636-3.178,2.696-5.796,2.696c-5.162,0-9.225-4.063-9.225-9.707
			c0-5.645,4.062-9.708,9.225-9.708c2.619,0,4.525,1.079,5.796,2.716v-2.234h4.025V35.914z M38.621,26.689
			c0,3.234,2.099,5.912,5.565,5.912c3.332,0,5.566-2.541,5.566-5.912c0-3.369-2.234-5.912-5.566-5.912
			C40.72,20.777,38.621,23.455,38.621,26.689z"/>
	</g>
	<g>
		<path d="M70.225,21.124h-7.068v8.03c0,2.484,1.31,3.447,2.928,3.447c1.251,0,2.619-0.56,3.717-1.252l1.598,3.217
			c-1.483,1.002-3.351,1.83-5.662,1.83c-4.179,0-6.625-2.254-6.625-7.164v-8.108h-3.678v-3.659h3.678V11.88h4.044v5.585h7.068
			V21.124z"/>
	</g>
	<g>
		<path d="M76.755,19.661c1.482-2.119,3.755-2.678,5.623-2.678c4.391,0,7.491,3.024,7.491,7.337v11.594h-4.043V25.65
			c0-3.103-1.599-4.834-4.295-4.834c-2.6,0-4.776,1.713-4.776,4.873v10.225h-4.044V8.182h4.044V19.661z"/>
		<path d="M110.612,26.669c0,0.521-0.039,1.041-0.077,1.504H96.9c0.54,3.312,2.87,4.697,5.489,4.697
			c1.849,0,3.814-0.729,5.335-1.944l2.002,2.87c-2.253,1.927-4.795,2.601-7.587,2.601c-5.527,0-9.437-3.853-9.437-9.707
			c0-5.776,3.754-9.707,9.186-9.707C107.05,16.983,110.593,20.912,110.612,26.669z M96.919,25.111h9.572
			c-0.443-2.87-2.118-4.547-4.681-4.547C98.941,20.564,97.343,22.414,96.919,25.111z"/>
	</g>
	<g>
		<path d="M130.7,24.32v11.594h-4.044V25.65c0-3.103-1.598-4.834-4.294-4.834c-2.601,0-4.776,1.713-4.776,4.873v10.225h-4.045
			V17.465h4.006v2.253c1.483-2.176,3.775-2.735,5.663-2.735C127.6,16.983,130.7,20.007,130.7,24.32z"/>
	</g>
	<g>
		<path d="M152.098,35.914h-4.023V33.7c-1.271,1.636-3.18,2.696-5.799,2.696c-5.16,0-9.225-4.063-9.225-9.707
			c0-5.645,4.063-9.708,9.225-9.708c2.619,0,4.525,1.079,5.799,2.716v-2.234h4.023V35.914z M137.191,26.689
			c0,3.234,2.098,5.912,5.563,5.912c3.332,0,5.564-2.541,5.564-5.912c0-3.369-2.232-5.912-5.564-5.912
			C139.289,20.777,137.191,23.455,137.191,26.689z"/>
	</g>
	<g>
		<path d="M157.799,20.932c1.426-2.389,3.967-3.429,6.451-3.429c4.545,0,7.626,2.812,7.626,7.299v11.111h-2.194V25.477
			c0-3.658-2.119-5.894-5.815-5.894c-3.408,0-6.065,2.444-6.065,6.008v10.322h-2.193V8.182h2.193L157.799,20.932L157.799,20.932z"/>
		<path d="M192.543,26.748c0,0.326-0.02,0.635-0.04,0.904h-15.194c0.328,4.219,3.293,6.645,7.01,6.645
			c2.523,0,4.525-1.002,6.125-2.58l1.176,1.502c-2.291,2.33-4.813,2.985-7.436,2.985c-5.295,0-9.107-3.813-9.107-9.341
			c0-5.471,3.869-9.359,8.975-9.359C188.883,17.503,192.482,21.335,192.543,26.748z M177.348,25.766h12.961
			c-0.328-3.757-2.889-6.315-6.297-6.315C180.333,19.449,177.771,22.086,177.348,25.766z"/>
	</g>
	<g>
		<path d="M213.092,35.914h-2.177v-3.486c-1.464,2.273-3.89,3.776-7.183,3.776c-5.086,0-9.053-3.949-9.053-9.341
			c0-5.393,3.967-9.359,9.053-9.359c3.293,0,5.719,1.521,7.183,3.773v-3.485h2.177V35.914z M196.914,26.863
			c0,4.082,2.947,7.279,7.068,7.279c4.102,0,7.049-3.121,7.049-7.279c0-4.16-2.947-7.299-7.049-7.299
			C199.822,19.564,196.914,22.761,196.914,26.863z"/>
	</g>
	<g>
		<path d="M219.545,35.914h-2.195V8.182h2.195V35.914z"/>
	</g>
	<g>
		<path d="M236.512,19.794h-8.359v9.88c0,3.063,1.619,4.469,4.027,4.469c1.559,0,2.984-0.539,4.043-1.388l1.039,1.638
			c-1.289,1.078-3.08,1.813-5.257,1.813c-3.774,0-6.046-2.102-6.046-6.491v-9.918h-4.16v-2.002h4.16V11.88h2.193v5.912h8.357
			L236.512,19.794L236.512,19.794z"/>
	</g>
	<g>
		<path d="M240.924,20.932c1.424-2.389,3.967-3.429,6.45-3.429c4.545,0,7.626,2.812,7.626,7.299v11.111h-2.195V25.477
			c0-3.658-2.117-5.894-5.816-5.894c-3.406,0-6.063,2.444-6.063,6.008v10.322h-2.195V8.182h2.195L240.924,20.932L240.924,20.932z"/>
	</g>
</g>
</svg>
