<?xml version="1.0" encoding="utf-8"?>
<!-- Generator: Adobe Illustrator 16.0.3, SVG Export Plug-In . SVG Version: 6.00 Build 0)  -->
<!DOCTYPE svg PUBLIC "-//W3C//DTD SVG 1.1//EN" "http://www.w3.org/Graphics/SVG/1.1/DTD/svg11.dtd">
<svg version="1.1" id="Layer_1" xmlns="http://www.w3.org/2000/svg" xmlns:xlink="http://www.w3.org/1999/xlink" x="0px" y="0px"
	 width="870.178px" height="978.488px" viewBox="0 0 870.178 978.488" enable-background="new 0 0 870.178 978.488"
	 xml:space="preserve">
<g>
	<path d="M360.007,468.938c0,0-95.446-118.032-97.788-247.429C259.975,92.01,351.753,0,351.753,0s95.532,118.012,97.874,247.475
		C451.928,376.97,360.007,468.938,360.007,468.938"/>
	<path d="M514.633,290.215c0,34.215,27.254,61.934,60.849,61.934c33.592,0,60.893-27.719,60.893-61.934
		c0-34.206-27.301-61.967-60.893-61.967C541.887,228.249,514.633,256.01,514.633,290.215 M869.949,321.18
		c0,0,10.85,261.078-116.949,440.092C625.066,940.305,406.741,969.532,406.741,969.532s-10.904-261.033,116.951-440.093
		C651.602,350.406,869.949,321.18,869.949,321.18"/>
	<path d="M356,737.725v-2.041c0-0.051-0.024-0.086-0.024-0.086c-0.466-51.094-8.833-207.512-89.914-321.152
		C167.816,276.955,0.18,254.492,0.18,254.492s-8.411,200.564,89.827,338.055c69.781,97.678,174.607,137.236,229.421,151.959v215.359
		c0,10.283,8.196,18.623,18.304,18.623c10.077,0,18.269-8.34,18.269-18.623V743.709C356.021,741.98,356,739.939,356,737.725"/>
</g>
</svg>
