<?xml version="1.0" encoding="utf-8"?>
<!-- Generator: Adobe Illustrator 16.0.3, SVG Export Plug-In . SVG Version: 6.00 Build 0)  -->
<!DOCTYPE svg PUBLIC "-//W3C//DTD SVG 1.1//EN" "http://www.w3.org/Graphics/SVG/1.1/DTD/svg11.dtd">
<svg version="1.1" id="Layer_1" xmlns="http://www.w3.org/2000/svg" xmlns:xlink="http://www.w3.org/1999/xlink" x="0px" y="0px"
	 width="132.463px" height="132.116px" viewBox="0 0 132.463 132.116" enable-background="new 0 0 132.463 132.116"
	 xml:space="preserve">
<path fill="#010101" d="M119.654,0h-105C6.692,0,0,4.154,0,12.923v107.423c0,6.577,5.769,11.771,12.808,11.771l50.077-0.115
	c7.038,0,12.809-5.192,12.809-11.885V95.77c0.229-0.114,16.154-9.462,16.154-9.462c3.346-2.423,3.807-7.846,1.385-11.191
	c-2.424-3.347-6.809-3.808-10.616-1.847l-7.038,4.039V68.54c8.252-4.012,11.689-13.955,7.678-22.208
	c-4.012-8.252-13.955-11.69-22.208-7.678c-8.253,4.012-11.691,13.955-7.679,22.208c1.41,2.9,3.634,5.328,6.4,6.986v19.961
	l-7.384-4.154c-3.577-2.191-8.539-0.576-10.731,3.001c-2.192,3.575-0.577,8.769,3,10.961l15,8.77v6.923l-40.961,0.115V18.232
	l95.423,0.115L114,113.308H98.077c-0.821-0.015-1.64,0.103-2.423,0.348c-4.5,0.69-7.961,3.461-7.961,9.69
	c0.023,4.789,3.865,8.683,8.654,8.771h23.307c7.039,0,12.809-4.847,12.809-11.423V12.115C132.461,5.423,126.691,0,119.654,0z"/>
</svg>
