<?xml version="1.0" encoding="utf-8"?>
<!-- Generator: Adobe Illustrator 16.0.3, SVG Export Plug-In . SVG Version: 6.00 Build 0)  -->
<!DOCTYPE svg PUBLIC "-//W3C//DTD SVG 1.1//EN" "http://www.w3.org/Graphics/SVG/1.1/DTD/svg11.dtd">
<svg version="1.1" id="Layer_1" xmlns="http://www.w3.org/2000/svg" xmlns:xlink="http://www.w3.org/1999/xlink" x="0px" y="0px"
	 width="617.078px" height="172.425px" viewBox="0 0 617.078 172.425" enable-background="new 0 0 617.078 172.425"
	 xml:space="preserve">
<path fill="#010101" d="M105.923,33.502c0-14.654-16.615-30.577-52.615-30.577C39.294,3.121,25.947,8.941,16.27,19.079
	c-5.186,5.67-9.222,12.292-11.885,19.5C1.5,46.079,0,55.079,0,65.348c0,18.923,4.27,33.577,12.692,43.962
	c8.423,10.385,19.846,15.577,34.27,15.577c8.654,0,15.692-1.154,21.346-3.577c5.166-2.311,10.044-5.215,14.538-8.654
	c0.923-0.692,2.885-3.23,2.885,1.847v6.923c0.032,4.474-0.511,8.934-1.615,13.27c-0.958,3.774-2.818,7.259-5.423,10.153
	c-2.875,3.192-6.535,5.579-10.615,6.923c-5.554,1.771-11.366,2.59-17.192,2.424c-7.289,0.006-14.546-0.964-21.577-2.885
	c-7.154-1.962-10.731-3-14.077-4.039c-4.5-1.269-9.577,2.077-9.923,7.731c-0.346,5.653,2.538,9.692,10.038,12.923
	c3.577,1.385,9,2.192,15.116,3.115c6.187,0.929,12.436,1.392,18.692,1.385c19.269,0,33.577-4.73,42.808-14.308
	c9.23-9.577,13.961-24.577,13.961-45C106.039,113.002,105.923,36.848,105.923,33.502z M51.692,108.848
	c-18.808,0-33.923-19.73-33.923-44.077S33,20.694,51.692,20.694c21.462,0,34.154,9.577,34.154,17.077V89.81
	C85.731,96.733,63.346,108.848,51.692,108.848z"/>
<path fill="#010101" d="M205.385,22.771c-3.679-0.396-7.377-0.588-11.077-0.577c-6.92-0.011-13.75,1.568-19.962,4.616
	c-5.192,2.423-18.577,10.5-18.577,17.308v76.846c0,5.077-4.385,12-11.192,12s-11.192-5.538-11.192-12V8.694
	c0-4.384,5.885-8.654,11.654-8.654c5.77,0,10.616,4.962,10.616,8.654v7.385c0,1.385,0,1.269,1.269,0.231
	c9.231-7.039,27.115-16.27,42.923-16.27c2.813-0.111,5.629,0.005,8.423,0.346c5.308,0.923,7.154,6.577,6.577,12.116
	C214.385,18.271,210.808,23.464,205.385,22.771z"/>
<path fill="#010101" d="M291,2.464c-35.94,0-65.077,29.136-65.077,65.077c0,35.941,29.137,65.077,65.077,65.077
	c35.941,0,65.077-29.136,65.077-65.077l0,0C356.077,31.6,326.941,2.464,291,2.464z M291,112.656
	c-24.916,0-45.115-20.198-45.115-45.115c0-24.917,20.199-45.115,45.115-45.115c24.917,0,45.115,20.199,45.115,45.115
	c0.007,24.91-20.182,45.109-45.092,45.115C291.016,112.656,291.008,112.656,291,112.656z"/>
<path fill="#010101" d="M489.577,10.31c-1.038,2.884-42.808,106.038-44.423,109.961c-2.192,5.309-5.539,12-15.231,12
	c-8.538,0-14.308-6.115-16.615-12c-1.615-4.038-42.923-106.153-44.192-109.961c-1.73-5.192,4.039-10.27,9.692-10.27
	c9,0,12.231,4.962,14.192,10.27c1.847,4.73,30.808,79.27,36.115,92.77c0.692,1.73,0.577,2.538,1.616-0.116
	c5.191-13.615,33.691-87.807,35.769-92.769c2.308-5.423,6.115-10.154,15.231-10.154c4.401-0.117,8.064,3.357,8.182,7.759
	C489.936,8.649,489.822,9.496,489.577,10.31z"/>
<path fill="#010101" d="M608.539,69.848h-82.27c-2.423,0-2.077,0-2.077,1.846c-0.009,6.279,1.166,12.503,3.462,18.346
	c2.045,5.378,5.325,10.2,9.577,14.077c4.01,3.677,8.774,6.434,13.961,8.077c5.734,1.866,11.74,2.763,17.77,2.653
	c8.861-0.021,17.636-1.744,25.846-5.077c7.039-2.884,17.192-5.308,19.5,2.192c2.077,6.577-0.576,10.5-4.846,12.808
	c-3.692,1.962-9.462,3.462-16.847,5.539c-7.633,2.068-15.515,3.077-23.423,3c-20.885,0-37.153-5.654-48.808-16.962
	c-11.653-11.308-17.538-27.346-17.538-48.115c0-20.539,5.653-36.923,16.846-48.923S545.654,1.194,564,1.194
	c16.962,0,30,4.962,39.231,14.885c9.23,9.923,13.846,24,13.846,42.231c0,0,0.115,5.308-1.73,8.192
	C613.661,68.542,611.183,69.76,608.539,69.848z M596.077,50.694c-0.462-9.692-3.23-17.308-8.308-22.846
	c-5.538-6.115-13.962-9.115-25.154-9.115s-20.308,3.346-27.115,10.039c-6.422,6.318-10.423,14.688-11.308,23.654
	c0,0.346-0.23,1.154,1.154,1.154h69.23C596.654,53.694,596.192,51.733,596.077,50.694z"/>
</svg>
